<?xml version="1.0" encoding="utf-8"?>
<!-- Generator: Adobe Illustrator 17.0.0, SVG Export Plug-In . SVG Version: 6.00 Build 0)  -->
<!DOCTYPE svg PUBLIC "-//W3C//DTD SVG 1.1//EN" "http://www.w3.org/Graphics/SVG/1.1/DTD/svg11.dtd">
<svg version="1.1" id="Layer_1" xmlns="http://www.w3.org/2000/svg" xmlns:xlink="http://www.w3.org/1999/xlink" x="0px" y="0px"
	 width="766.862px" height="815.075px" viewBox="0 0 766.862 815.075" enable-background="new 0 0 766.862 815.075"
	 xml:space="preserve">
<path opacity="0.45" fill="#FFFFFF" d="M479.289,0C320.447,0,191.716,128.736,191.716,287.573
	c0,158.842,128.731,287.573,287.573,287.573c158.865,0,287.573-128.731,287.573-287.573C766.862,128.736,638.154,0,479.289,0z"/>
<path opacity="0.4" fill-rule="evenodd" clip-rule="evenodd" fill="#FFFFFF" d="M383.431,575.15
	c0-105.694-86.023-191.716-191.716-191.716C86.009,383.435,0,469.456,0,575.15C0,681.25,86.009,766.866,191.716,766.866
	C297.408,766.866,383.431,681.25,383.431,575.15L383.431,575.15L383.431,575.15z"/>
<path fill-rule="evenodd" clip-rule="evenodd" fill="#FFFFFF" d="M383.431,575.15c0-105.694-86.023-191.716-191.716-191.716
	C86.009,383.435,0,469.456,0,575.15C0,681.25,86.009,766.866,191.716,766.866C297.408,766.866,383.431,681.25,383.431,575.15
	L383.431,575.15L383.431,575.15z M374.269,575.15c0,100.906-81.641,182.58-182.554,182.58c-100.925,0-182.705-81.674-182.705-182.58
	c0-100.92,81.78-182.698,182.705-182.698C292.628,392.452,374.269,474.78,374.269,575.15L374.269,575.15L374.269,575.15z
	 M362.674,575.15c0-60.629-30.853-123.305-97.231-143.374c-13.792-4.232-25.386-6.965-38.767-6.965
	c-30.729,0-31.816,17.481-46.169,17.481c-7.912,0-13.242-5.729-13.242-12.695c0-12.162,14.342-21.718,37.145-21.718
	c21.307,0,37.694,5.336,40.828,6.834l0.548-1.498c-5.728-2.189-25.948-9.155-54.069-9.155c-61.184,0-123.305,31.403-143.374,97.224
	c-4.244,13.787-6.977,25.538-6.977,38.781c0,30.854,17.486,32.351,17.486,46.693c0,7.508-5.729,12.837-12.707,12.837
	c-12.143,0-21.704-13.929-21.704-37.276c0-21.168,5.329-37.687,6.289-40.832l-1.498-0.544c-1.647,6.411-8.612,26.086-8.612,54.208
	c0,61.589,31.405,123.716,97.219,143.918c13.804,4.244,25.525,6.834,38.781,6.834c30.866,0,31.814-18.031,46.168-18.031
	c7.503,0,13.369,5.873,13.369,13.249c0,11.745-13.931,21.305-37.271,21.305c-21.168,0-38.256-5.317-40.839-6.414l-0.523,1.628
	c5.84,2.597,26.06,8.475,54.194,8.475c61.022,0,123.704-30.867,143.374-97.219c4.232-13.255,6.828-25.393,6.828-38.237
	c0-31.278-17.474-32.365-17.474-46.712c0-7.919,5.317-13.25,12.705-13.25c12.282,0,21.831,14.342,21.831,37.701
	c0,20.751-5.329,37.145-6.404,40.834l1.636,0.542C356.246,623.504,362.674,603.826,362.674,575.15L362.674,575.15L362.674,575.15z
	 M298.358,626.087c0,23.897-20.633,48.884-50.924,48.884c-36.597,0-55.168-30.848-55.168-58.452
	c0-38.772,26.485-55.168,37.668-61.034c-2.17-1.64-3.807-3.687-5.317-6.421c-12.83,9.011-24.438,17.075-48.877,30.861
	c-1.099,16.944-2.597,35.51-6.951,48.354c-9.025,27.035-27.598,46.693-52.036,46.693c-20.632,0-30.743-14.884-30.743-30.848
	c0-11.627,6.853-26.497,19.135-37.694c15.427-13.811,32.377-22.273,55.718-34.555c0.524-3.145,1.073-6.279,1.635-10.11
	c-5.878,5.329-14.329,7.508-21.307,7.508c-11.07,0-20.206-9.548-22.241-19.658c-14.903-1.087-26.086-11.74-26.648-28.671
	c0-12.162,4.781-22.803,12.844-22.803c3.145,0,4.218,2.59,4.218,4.774c0,2.047-2.72,9.011-2.72,15.839
	c0,6.971,3.282,15.976,11.745,15.976c0-27.579,20.196-63.225,44.11-63.225c15.839,0,18.01,11.752,18.01,17.075
	c0,24.987-24.975,52.571-45.195,59.386c0.562,2.191,2.734,8.065,9.137,8.065c7.938,0,17.486-7.503,22.279-13.381
	c2.06-11.051,10.11-27.023,20.756-27.023c4.232,0,6.279,3.127,6.279,6.953c0,7.919-8.463,18.029-14.879,24.862
	c-0.96,5.312-1.498,11.178-1.498,15.969c18.561-11.202,28.134-16.93,41.914-27.035c-1.085-3.687-1.085-8.056-1.085-12.287
	c0-24.857,16.512-52.585,38.218-52.585c12.294,0,18.559,8.607,18.559,18.173c0,18.018-15.415,33.856-37.118,50.389
	c1.647,4.232,4.23,7.9,8.461,10.091c0.537-1.092,7.489-2.191,13.242-2.191c6.428,0,15.415,1.649,15.415,8.065
	c0,7.381-10.084,9.011-18.01,9.011c-4.244,0.555-11.197-1.092-11.197-1.092c-11.608,3.145-33.998,16.519-33.998,50.401
	c0,22.94,14.34,44.096,36.732,44.096c16.925,0,30.729-12.693,31.266-32.358c0.024-12.693-5.329-26.092-18.024-26.092
	c-6.414,0-12.156,4.786-12.156,11.75c-0.537,10.654,7.376,11.759,7.376,18.573c0,4.781-3.682,6.97-7.376,6.97
	c-10.635,0-18.698-10.659-18.698-23.895c0-15.983,13.929-29.238,31.941-29.238C286.2,584.156,298.358,604.376,298.358,626.087
	L298.358,626.087L298.358,626.087z M259.178,492.266c0-2.59-0.562-5.866-3.831-5.866c-7.914-0.012-20.62,17.063-20.62,38.781
	C250.566,511.377,259.178,499.637,259.178,492.266L259.178,492.266L259.178,492.266z M165.08,490.077
	c0-2.59-1.498-3.677-3.694-3.677c-11.195-0.012-27.01,29.226-27.01,46.7C151.837,523.532,165.08,501.828,165.08,490.077
	L165.08,490.077L165.08,490.077z M158.803,589.485c-23.89,11.608-54.22,32.37-54.22,55.175c0,8.461,4.232,13.785,12.169,13.785
	C140.08,658.445,154.42,621.3,158.803,589.485L158.803,589.485L158.803,589.485z"/>
<path opacity="0.45" fill="#FFFFFF" d="M191.716,0c0,158.842,128.731,287.573,287.573,287.573
	c158.865,0,287.573-128.731,287.573-287.573H479.289H191.716z"/>
<path opacity="0.45" fill="#FFFFFF" d="M383.431,766.864c0,16.652-2.125,32.807-6.114,48.211h385.595
	C740.217,678.92,621.917,575.147,479.289,575.147c-59.232,0-114.272,17.909-160.016,48.597
	C358.64,658.853,383.431,709.955,383.431,766.864z"/>
<path opacity="0.45" fill="#FFFFFF" d="M191.716,766.862c5.438,0,10.819,0.239,16.142,0.682
	c20.739-59.158,60.253-109.478,111.415-143.801c-33.885-30.22-78.565-48.594-127.557-48.594C85.821,575.15,0,660.972,0,766.864
	c0,16.652,2.126,32.807,6.115,48.211h58.48C98.428,785.082,142.938,766.862,191.716,766.862z"/>
<path opacity="0.45" fill="#FFFFFF" d="M207.857,767.544c42.432,3.536,80.924,20.881,110.985,47.531h58.474
	c3.988-15.404,6.114-31.559,6.114-48.211c0-56.909-24.791-108.011-64.158-143.12C268.11,658.067,228.596,708.386,207.857,767.544z"
	/>
<path opacity="0.45" fill="#FFFFFF" d="M207.857,767.544c42.432,3.536,80.924,20.881,110.985,47.531h58.474
	c3.988-15.404,6.114-31.559,6.114-48.211c0-56.909-24.791-108.011-64.158-143.12C268.11,658.067,228.596,708.386,207.857,767.544z"
	/>
<path opacity="0.45" fill="#FFFFFF" d="M207.857,767.544c-5.323-0.444-10.704-0.682-16.142-0.682
	c-48.778,0-93.287,18.22-127.121,48.213h131.071C198.392,798.723,202.496,782.839,207.857,767.544z"/>
<path opacity="0.45" fill="#FFFFFF" d="M207.857,767.544c-5.323-0.444-10.704-0.682-16.142-0.682
	c-48.778,0-93.287,18.22-127.121,48.213h131.071C198.392,798.723,202.496,782.839,207.857,767.544z"/>
<path opacity="0.45" fill="#FFFFFF" d="M318.843,815.075c-30.061-26.65-68.554-43.995-110.985-47.531
	c-5.362,15.295-9.465,31.178-12.192,47.531H318.843z"/>
<path opacity="0.45" fill="#FFFFFF" d="M318.843,815.075c-30.061-26.65-68.554-43.995-110.985-47.531
	c-5.362,15.295-9.465,31.178-12.192,47.531H318.843z"/>
<path opacity="0.45" fill="#FFFFFF" d="M318.843,815.075c-30.061-26.65-68.554-43.995-110.985-47.531
	c-5.362,15.295-9.465,31.178-12.192,47.531H318.843z"/>
<path opacity="0.45" fill="#FFFFFF" d="M766.862,575.147c0-158.837-128.708-287.573-287.573-287.573
	c-158.842,0-287.573,128.736-287.573,287.573c0,100.23,51.268,188.455,129.002,239.929H637.87
	C715.604,763.601,766.862,675.377,766.862,575.147z"/>
</svg>
