<?xml version="1.0" encoding="utf-8"?>
<!-- Generator: Adobe Illustrator 17.0.0, SVG Export Plug-In . SVG Version: 6.00 Build 0)  -->
<!DOCTYPE svg PUBLIC "-//W3C//DTD SVG 1.1//EN" "http://www.w3.org/Graphics/SVG/1.1/DTD/svg11.dtd">
<svg version="1.1" id="Layer_1" xmlns="http://www.w3.org/2000/svg" xmlns:xlink="http://www.w3.org/1999/xlink" x="0px" y="0px"
	 width="324.004px" height="216.188px" viewBox="0 0 324.004 216.188" enable-background="new 0 0 324.004 216.188"
	 xml:space="preserve">
<path opacity="0.45" fill="#FFFFFF" d="M-0.003,108.105c0-59.654,48.346-108,108-108s108,48.345,108,108
	c0,59.664-48.346,108-108,108S-0.003,167.768-0.003,108.105z"/>
<path opacity="0.4" fill="#FFFFFF" d="M216.007,216.105c-59.541,0-108.006-48.164-108.006-108.003
	c0-59.533,48.465-107.997,108.006-107.997c59.52,0,107.997,48.464,107.997,107.997C324.004,167.941,275.526,216.105,216.007,216.105
	z"/>
<g>
	<path fill="#FFFFFF" d="M240.238,79.986c0-12.27,8.3-24.198,12.844-21.93C258.244,60.64,249.215,72.205,240.238,79.986
		 M183.688,84.471c0-9.873,9.746-28.644,15.707-26.662C206.425,60.153,193.563,79.084,183.688,84.471z M173.817,155.08
		c-4.484,0.205-7.472-2.666-7.472-7.453c0-12.861,17.831-25.14,31.295-31.729C195.25,133.851,189.19,154.377,173.817,155.08z
		 M256.088,113.194c-10.163,0-17.95,7.482-17.95,16.456c0,7.482,4.485,13.459,10.474,13.459c2.098,0,4.181-1.195,4.181-3.891
		c0-3.885-5.153-4.834-4.752-10.652c0.252-3.838,3.867-6.401,7.45-6.401c7.181,0,10.538,6.958,10.538,14.139
		c-0.302,11.071-8.446,18.776-18.015,18.776c-12.568,0-20.637-11.971-20.637-24.838c0-19.146,12.56-26.625,19.14-28.419
		c0.067-0.006,17.212,3.057,16.67-4.5c-0.232-3.315-5.177-4.589-8.76-4.736c-3.976-0.157-7.966,1.275-7.966,1.275
		c-2.092-1.056-3.536-3.111-4.427-5.499c12.264-9.278,20.938-18.252,20.938-28.422c0-5.385-3.592-10.175-10.471-10.175
		c-12.264,0-21.542,15.557-21.542,29.618c0,2.392,0,4.789,0.601,6.883c-7.778,5.685-13.561,9.212-24.035,15.494
		c0-1.314,0.274-4.682,1.153-9.072c3.59-3.888,8.518-9.71,8.518-14.199c0-2.093-1.189-3.891-3.592-3.891
		c-5.979,0-10.468,8.972-11.664,15.258c-2.694,3.292-8.076,7.485-12.564,7.485c-3.59,0-4.785-3.297-5.09-4.491
		c11.373-3.894,25.432-19.449,25.432-33.51c0-2.991-1.196-9.576-10.168-9.576c-13.465,0-24.832,20.045-24.832,35.603
		c-4.791,0-6.579-5.087-6.579-8.972c0-3.892,1.494-7.783,1.494-8.977c0-1.2-0.604-2.694-2.396-2.694
		c-4.488,0-7.183,5.985-7.183,12.864c0.304,9.573,6.585,15.558,14.961,16.154c1.197,5.685,6.285,11.067,12.564,11.067
		c3.895,0,8.676-1.194,11.971-4.185c-0.304,2.098-0.598,3.889-0.901,5.685c-13.163,6.883-22.735,11.67-31.412,19.44
		c-6.879,6.29-10.771,14.663-10.771,21.249c0,8.977,5.685,17.344,17.352,17.344c13.762,0,24.234-11.062,29.319-26.326
		c2.398-7.178,3.355-17.628,3.95-27.205c13.766-7.774,20.29-12.28,27.459-17.369c0.899,1.494,1.808,2.695,2.994,3.592
		c-6.281,3.294-21.237,12.567-21.237,34.402c0,15.562,10.474,32.906,31.11,32.906c17.054,0,28.726-14.048,28.726-27.516
		C276.139,124.561,269.254,113.194,256.088,113.194z M307.524,138.89c-0.05,0.094-0.223,0.234-0.554,0.117
		c-0.252-0.094-0.334-0.229-0.325-0.387c0.018-0.176,3.621-10.813,3.595-23.033c-0.041-13.167-5.391-21.243-12.264-21.243
		c-4.192,0-7.181,2.997-7.181,7.478c0,8.079,9.873,8.676,9.873,26.333c0,7.178-1.494,14.051-3.891,21.539
		c-11.071,37.395-46.377,54.738-80.771,54.738c-15.861,0-27.129-3.255-30.486-4.761c-0.138-0.067-0.249-0.337-0.143-0.595
		c0.077-0.211,0.311-0.363,0.438-0.305c1.365,0.539,11.037,3.571,23.006,3.571c13.165,0,20.946-5.376,20.946-11.974
		c0-4.178-3.29-7.471-7.485-7.471c-8.076,0-8.678,10.166-26.027,10.166c-7.48,0-14.059-1.488-21.84-3.885
		c-37.098-11.367-54.777-46.374-54.746-81.079c0.014-16.896,4.746-30.354,4.826-30.486c0.055-0.089,0.272-0.183,0.533-0.089
		c0.266,0.089,0.34,0.318,0.314,0.387c-0.438,1.4-3.578,11.049-3.578,23.01c0,13.17,5.382,20.943,12.261,20.943
		c3.892,0,7.183-2.991,7.183-7.175c0-8.08-9.873-8.979-9.873-26.329c0-7.485,1.494-14.064,3.892-21.842
		c11.366-37.096,46.371-54.483,80.78-54.747c15.987-0.123,29.985,4.661,30.51,5.082c0.091,0.078,0.196,0.295,0.091,0.538
		c-0.105,0.278-0.296,0.315-0.393,0.299c-0.167-0.021-9.264-3.825-23.039-3.825c-12.856-0.006-20.933,5.382-20.933,12.267
		c0,3.886,2.988,7.176,7.475,7.176c8.082,0,8.683-9.873,26.026-9.873c7.482,0,14.059,1.497,21.838,3.892
		c37.406,11.369,54.431,46.673,54.75,80.774C312.496,125.578,307.574,138.799,307.524,138.89z M216.007,5.187
		c-56.844,0-102.924,46.078-102.924,102.916c0,56.851,46.08,102.914,102.924,102.914c56.839,0,102.902-46.063,102.902-102.914
		C318.909,51.561,272.846,5.187,216.007,5.187z M216.007,216.105c-59.541,0-108.006-48.164-108.006-108.003
		c0-59.533,48.465-107.997,108.006-107.997c59.52,0,107.997,48.464,107.997,107.997
		C324.004,167.941,275.526,216.105,216.007,216.105z"/>
</g>
<path opacity="0.45" fill="#FFFFFF" d="M-0.001,0.105c-0.001,0-0.001,0-0.001,0l-0.001,216c0,0,0.001,0,0.002,0
	c59.654,0,108-48.337,108-108C107.999,48.45,59.653,0.105-0.001,0.105z"/>
</svg>
